<svg width="24" height="24" viewBox="0 0 24 24" fill="none" xmlns="http://www.w3.org/2000/svg">
    <path d="M12 0C5.376 0 0 5.376 0 12C0 18.624 5.376 24 12 24C18.624 24 24 18.624 24 12C24 5.376 18.624 0 12 0ZM17.76 8.208L15.792 17.568C15.648 18.24 15.336 18.384 14.784 18.072L11.76 15.816L10.32 17.208C10.176 17.352 10.032 17.496 9.768 17.496L9.936 14.4L15.264 9.516C15.504 9.312 15.216 9.192 14.904 9.396L8.184 13.596L5.184 12.6C4.536 12.384 4.524 12.024 5.316 11.712L16.92 7.428C17.472 7.212 17.952 7.488 17.76 8.208Z" fill="white"/>
</svg> 